<svg xmlns="http://www.w3.org/2000/svg" width="25" height="25" fill="none" xmlns:v="https://vecta.io/nano"><path fill-rule="evenodd" d="M10.542 9.969a1 1 0 0 0 .445-.832v-4a3 3 0 0 0-3-3h-4a1 1 0 0 0-1 1c0 9.941 9.059 19 19 19a1 1 0 0 0 1-1v-4a3 3 0 0 0-3-3h-4a1 1 0 0 0-.832.445L13.25 17.44a18.89 18.89 0 0 1-5.292-5.154l-.274-.412 2.858-1.905zm5.981 6.168h3.465a1 1 0 0 1 1 1v2.965c-1.937-.134-3.828-.652-5.591-1.474l-.405-.195 1.531-2.297zm-11.501-12h2.965a1 1 0 0 1 1 1v3.465l-2.297 1.531c-.935-1.877-1.524-3.91-1.669-5.996z" fill="#3b3b3b"/></svg>