<svg xmlns="http://www.w3.org/2000/svg" width="25" height="25" fill="none" xmlns:v="https://vecta.io/nano"><path fill-rule="evenodd" d="M12.988 2.137c4.971 0 9 3.986 9 8.902 0 3.254-2.722 6.693-8.052 10.441l-.948.657-.572-.395c-5.577-3.849-8.428-7.374-8.428-10.703 0-4.917 4.029-8.902 9-8.902zm0 1.978c-3.866 0-7 3.1-7 6.924 0 2.403 2.297 5.334 7 8.679 4.703-3.345 7-6.277 7-8.679 0-3.824-3.134-6.924-7-6.924zm0 2.022a4 4 0 0 1 0 8 4 4 0 0 1 0-8zm0 2a2 2 0 0 0 0 4 2 2 0 0 0 0-4z" fill="#3b3b3b"/></svg>